<svg height="90" viewBox="0 0 90 90" width="90" xmlns="http://www.w3.org/2000/svg"><g fill="none" fill-rule="evenodd"><path d="m86 243c0 23.748-19.252 43-43 43s-43-19.252-43-43 19.252-43 43-43 43 19.252 43 43" fill="#e9effa" transform="translate(2 -198)"/><g transform="translate(19 19)"><path d="m20 0-3 3 5 7 4-4z" fill="#e9effa"/><path d="m32 0-6 6 4 4 5-7z" fill="#e9effa"/><path d="m20 0 6 6 6-6z" fill="#67c1b6"/><path d="m45.7227 8.5845c-1.122-1.684-2.728-2.987-4.606-3.738l-6.117-1.846-5 7-4-4-4 4-5-7-6.116 1.846c-1.878.751-3.484 2.054-4.606 3.738l-6.278 9.416 9 6 3-4v30h28v-30l3 4 9-6z" fill="#87d6cd"/><g stroke-linecap="round" stroke-linejoin="round" stroke-width="2"><path d="m17 3-6.116 1.847c-1.879.751-3.485 2.054-4.607 3.737l-6.277 9.416 9 6 3-4v30h28v-30l3 4 9-6-6.277-9.416c-1.122-1.683-2.728-2.986-4.607-3.737l-6.116-1.847" stroke="#4aa598"/><path d="m26 18v-12" stroke="#4aa598"/><path d="m26 6-4 4-5-7 3-3h12l3 3-5 7z" stroke="#4aa598"/><path d="m26 6-6-6" stroke="#4aa598"/><path d="m32 0-6 6" stroke="#4aa598"/><path d="m36 16h-4" stroke="#358779"/></g></g></g></svg>